<?xml version="1.0" encoding="utf-8"?>
<!-- Generator: Adobe Illustrator 24.1.1, SVG Export Plug-In . SVG Version: 6.00 Build 0)  -->
<svg version="1.1" id="Layer_1" xmlns="http://www.w3.org/2000/svg" xmlns:xlink="http://www.w3.org/1999/xlink" x="0px" y="0px"
	 viewBox="0 0 204 215" style="enable-background:new 0 0 204 215;" xml:space="preserve">
<style type="text/css">
	.st0{fill:#151515;}
</style>
<path class="st0" d="M153.2,82.96c-2.12,0-4.21,0.15-6.27,0.41c3.42-6.77,5.36-14.42,5.36-22.52c0-27.62-22.39-50.01-50.01-50.01
	c-27.62,0-50.01,22.39-50.01,50.01c0,8.11,1.94,15.75,5.36,22.52c-2.06-0.26-4.14-0.41-6.27-0.41c-27.62,0-50.01,22.39-50.01,50.01
	c0,27.62,22.39,50.01,50.01,50.01c20.57,0,38.24-12.43,45.91-30.18c1.34-1.1,2.65-2.34,3.95-3.73
	c-2.75,12.76-11.53,43.86-33.32,55.23h68.75c-21.8-11.38-30.57-42.48-33.33-55.24c1.31,1.4,2.63,2.66,3.96,3.77
	c7.68,17.73,25.34,30.14,45.89,30.14c27.62,0,50.01-22.39,50.01-50.01C203.21,105.34,180.82,82.96,153.2,82.96z"/>
</svg>
